<svg width="409" height="83" viewBox="0 0 409 83" fill="none" xmlns="http://www.w3.org/2000/svg">
<g clip-path="url(#clip0_11_99)">
<path d="M408.26 52.369C408.013 51.875 406.779 51.875 407.272 50.8869C407.272 49.8988 409.494 49.8988 409 48.9107C406.779 47.9226 404.557 49.4048 402.336 48.9107C402.583 48.4167 403.076 47.9226 403.323 47.4286C403.817 47.4286 404.31 46.9345 404.804 46.9345C406.038 46.4405 406.532 45.4524 405.791 43.9702C405.298 42.9821 403.817 43.4762 402.829 43.4762C401.348 43.4762 399.867 43.9702 398.386 44.4643C398.14 43.9702 400.114 43.4762 398.386 42.9821C396.905 42.9821 395.424 42.9821 393.944 42.4881C393.697 41.5 394.931 41.006 396.165 41.006C396.905 40.5119 397.646 41.006 398.386 40.5119C398.386 40.5119 398.633 40.5119 398.633 40.0179C400.855 39.5238 403.076 39.5238 404.804 38.0417C403.57 37.0536 402.336 38.5357 401.595 37.5476C402.089 37.0536 403.076 37.5476 404.064 37.0536C403.323 37.0536 402.829 36.5595 402.336 36.5595C403.076 36.0655 403.817 36.0655 404.557 35.5714C405.791 34.5833 409 35.5714 408.013 33.1012C407.766 32.1131 407.026 31.619 406.038 31.125C405.791 31.125 405.791 31.125 405.791 31.125V30.631C405.298 30.1369 404.804 30.1369 404.31 30.631C404.804 30.1369 405.298 31.125 405.791 30.631C406.038 30.1369 406.285 29.6429 406.285 29.6429C406.779 29.6429 407.026 29.1488 407.519 29.1488C407.519 28.6548 407.272 28.6548 407.272 28.1607C407.272 27.6667 407.026 27.6667 406.779 27.6667C407.766 27.1726 407.519 26.1845 407.519 25.6905C407.766 24.7024 407.026 23.7143 407.766 23.2202C408.26 23.2202 408.753 23.2202 408.753 22.7262C408.013 21.7381 408.26 20.75 406.532 20.256C404.557 19.2679 401.842 20.75 399.867 19.2679C399.621 18.2798 398.88 16.7976 399.867 15.8095C400.855 15.8095 402.089 15.8095 402.829 14.8214C401.842 14.8214 400.855 14.8214 399.867 14.8214C398.88 14.3274 398.14 14.3274 397.152 14.8214C395.671 14.8214 394.19 15.3155 392.709 14.8214C393.697 14.8214 393.697 14.3274 393.203 13.8333C392.956 13.3393 391.722 13.8333 391.969 12.8452C392.709 13.3393 393.943 12.3512 394.437 13.3393C395.424 12.3512 394.19 12.3512 393.203 12.3512C393.203 12.3512 393.203 12.3512 393.45 11.8571C393.943 11.8571 394.437 11.8571 394.931 11.8571C395.178 11.8571 395.424 11.8571 395.424 11.8571C395.671 11.8571 396.165 11.8571 396.412 11.8571C397.399 11.3631 398.633 10.375 397.646 9.3869C398.386 8.89286 399.127 8.39881 399.867 8.39881C396.905 7.90476 393.697 7.41071 390.488 7.41071C389.501 7.41071 388.266 7.41071 387.279 7.41071V6.91667C388.513 6.91667 389.747 6.42262 391.228 6.42262C393.944 6.42262 396.905 6.91667 399.621 5.92857C400.608 5.43452 400.855 5.43452 399.621 4.94048C397.893 4.94048 399.867 4.44643 399.621 3.95238C398.88 3.45833 397.893 3.45833 397.152 3.45833C394.437 3.45833 391.475 3.45833 388.76 3.45833C387.279 3.45833 385.798 2.96429 384.317 3.45833C383.083 2.96429 381.602 2.47024 380.121 2.47024C375.925 2.47024 371.482 2.47024 367.286 2.47024C367.779 1.97619 368.273 1.97619 369.013 1.97619C366.792 0.988095 364.077 1.97619 361.855 0.494048C361.115 1.48214 361.115 1.48214 362.102 1.48214C361.362 1.48214 360.374 1.48214 359.881 2.47024C359.881 2.47024 359.881 2.47024 359.634 2.47024C359.387 2.47024 358.893 2.47024 358.647 2.47024C356.919 1.97619 354.944 1.97619 352.969 1.97619C352.476 1.97619 351.982 1.97619 351.242 1.97619C350.995 1.97619 350.995 1.97619 350.748 1.48214C349.514 0.494048 348.033 0.494048 346.552 0C345.811 0.988095 344.824 1.48214 343.343 1.48214C342.849 1.48214 341.862 0.988095 341.862 1.97619C340.628 2.47024 339.394 1.97619 337.913 2.47024C336.185 1.97619 334.21 2.47024 332.236 1.97619C331.989 1.97619 331.742 1.97619 331.495 1.97619C329.027 1.48214 326.312 2.47024 323.596 1.48214C320.634 1.48214 317.673 1.97619 314.957 1.48214C313.97 0.494048 312.736 0.988095 311.749 0.988095C311.255 0.988095 310.761 0.988095 310.514 1.48214C308.54 1.48214 306.565 1.48214 304.344 1.97619C303.603 1.97619 302.863 1.97619 302.122 1.97619C301.628 1.97619 301.135 1.97619 300.394 1.97619C300.147 1.97619 299.901 1.97619 299.901 1.97619C297.679 1.97619 295.458 1.97619 293.236 1.97619C290.027 1.97619 287.065 2.47024 283.857 2.47024C279.907 2.47024 275.711 2.47024 271.762 2.96429C271.268 2.96429 271.021 2.96429 270.528 2.96429C267.319 2.96429 263.863 2.96429 260.654 2.96429C260.161 2.47024 259.914 1.97619 259.42 1.48214C258.68 1.97619 258.433 2.47024 258.433 2.96429C257.939 2.96429 257.692 2.96429 257.199 2.96429C254.977 1.97619 252.509 2.96429 250.287 2.47024C248.56 1.97619 247.079 2.47024 246.091 3.45833C245.845 3.45833 245.845 3.45833 245.598 3.45833C244.117 3.95238 242.636 3.45833 241.155 3.95238C235.724 3.95238 230.541 4.44643 225.111 4.44643C223.63 4.44643 222.149 4.44643 220.668 4.44643C219.434 4.94048 217.212 4.44643 215.237 4.44643C212.029 4.44643 209.067 4.44643 205.858 4.94048C202.896 4.94048 199.934 4.94048 196.972 4.94048C196.725 4.94048 196.478 4.94048 196.478 4.94048C191.048 4.94048 185.371 4.94048 179.94 5.43452C179.694 5.43452 179.447 5.43452 179.447 5.43452C175.991 5.43452 172.536 5.92857 169.08 5.92857C167.105 5.92857 164.884 5.43452 162.909 6.42262C164.884 6.42262 166.858 6.42262 168.833 6.42262C166.858 5.92857 164.884 5.92857 162.909 6.42262C162.662 6.42262 162.662 6.42262 162.415 6.42262C159.453 6.42262 156.491 6.42262 153.529 6.91667C145.878 6.91667 138.473 7.41071 130.821 8.39881C127.365 8.39881 123.91 8.89286 120.454 9.3869C114.283 9.3869 107.866 9.3869 101.695 9.3869C101.201 9.3869 100.954 9.3869 100.461 9.3869C100.214 9.3869 99.7202 9.3869 99.4734 9.3869C97.7456 8.89286 96.0177 9.3869 94.5367 8.89286C90.8343 8.89286 87.1318 8.39881 83.4293 8.39881C83.1825 8.39881 83.1825 8.39881 82.9356 8.39881C81.4547 7.90476 79.7268 8.39881 77.999 8.39881C76.7649 8.39881 75.2839 8.39881 74.0497 8.39881C69.1131 7.41071 63.6828 7.90476 58.7461 7.41071C58.2525 7.41071 57.7588 7.41071 57.0183 7.41071C54.55 6.91667 51.8349 6.91667 49.3665 6.42262C48.3792 5.92857 47.1451 6.42262 46.1577 5.92857C45.1704 5.43452 43.6894 5.92857 42.7021 5.43452C40.2338 4.44643 38.9996 5.43452 39.4933 7.41071V7.90476C39.4933 10.375 39.7401 12.8452 40.4806 14.8214C40.2338 16.3036 39.4933 18.2798 40.9743 19.7619C41.2211 20.256 40.2338 20.75 39.7401 20.75C38.9996 20.75 38.2591 20.75 37.5186 20.75C37.7655 20.75 37.7655 20.75 38.0123 21.244H37.7655C37.7655 21.244 37.7655 20.75 37.5186 20.75C33.3225 21.7381 29.1263 21.7381 24.9302 23.2202C23.4492 23.2202 21.9682 23.2202 20.7341 23.2202C19.4999 23.2202 18.0189 23.2202 17.7721 21.7381C17.5253 21.7381 17.5253 21.244 17.2784 20.75C17.2784 20.256 17.2784 19.7619 16.5379 20.256C15.0569 21.244 15.0569 22.2321 16.7848 22.7262C16.7848 22.7262 17.0316 23.2202 17.2784 23.2202C13.3291 24.7024 8.88615 24.7024 5.67734 27.1726C4.19635 27.1726 3.20903 28.1607 1.97487 28.6548C1.72804 28.6548 1.72804 28.6548 1.4812 28.6548C0.000214556 30.631 -0.246617 32.6071 0.247046 34.5833V35.0774C0.000214556 37.0536 0.000214556 39.0298 0.493878 41.006C0.247046 42.4881 0.987541 43.9702 1.4812 45.4524C1.4812 45.9464 1.23437 46.4405 1.97487 46.9345C1.72804 47.9226 2.71536 48.4167 2.2217 49.4048C2.2217 51.875 3.20903 53.8512 4.19635 56.3214C4.69002 56.8155 5.18368 57.3095 5.67734 57.8036C6.41784 58.2976 7.15833 58.7917 7.89883 59.2857C8.39249 59.7798 8.63932 60.2738 9.62665 60.7679C10.3671 61.2619 11.1076 61.756 12.095 61.756C12.3418 61.756 12.5886 61.756 12.5886 62.25C12.5886 63.2381 13.0823 64.2262 13.576 65.2143C12.8355 66.6964 12.8355 68.1786 13.8228 70.1548C14.0696 70.1548 14.0696 70.6488 14.3164 70.6488C14.3164 71.6369 13.576 72.625 14.8101 73.6131C14.8101 73.6131 14.8101 73.119 14.8101 72.625C16.0443 73.6131 17.2784 74.1071 19.0063 73.119C17.2784 74.1071 18.5126 76.0833 18.5126 77.5655C19.2531 77.5655 19.9936 77.5655 20.7341 77.5655C23.2024 77.5655 25.6707 78.0595 28.139 78.0595C28.3859 78.0595 28.3859 78.0595 28.3859 78.0595C28.8795 78.0595 29.62 78.0595 30.1137 78.0595C32.3352 77.5655 33.0757 76.0833 33.0757 74.1071C33.0757 73.119 33.3225 72.625 34.8035 72.625C35.2971 72.625 35.7908 72.625 36.0376 72.131V71.6369C36.7781 71.6369 37.5186 71.6369 37.7655 72.131C38.9996 74.1071 41.7148 74.1071 43.4426 75.0952C43.6894 75.5893 43.4426 74.6012 44.4299 75.0952C44.6767 75.0952 44.6767 74.6012 44.9236 74.6012C44.9236 74.6012 44.9236 75.0952 45.1704 75.0952C46.6514 75.0952 48.3792 75.0952 49.8602 74.6012C49.8602 74.6012 49.8602 74.6012 49.8602 74.1071C50.3539 74.1071 51.0944 74.1071 51.3412 73.6131C52.0817 73.119 54.0563 73.6131 54.3032 72.131C55.0437 73.119 56.2778 72.625 57.512 73.119C58.2525 73.119 57.7588 74.6012 59.2398 74.6012C58.7461 75.0952 58.4993 75.0952 58.0056 75.5893C56.031 76.5774 57.0183 77.5655 58.7461 78.5536C59.9803 78.5536 61.2145 78.5536 62.6954 78.0595C63.9296 79.0476 65.1638 77.5655 66.6448 78.0595C68.6194 76.5774 70.5941 75.0952 70.5941 72.625C71.3345 73.119 72.3219 73.6131 72.5687 74.1071C69.8536 75.0952 72.0751 76.5774 72.5687 77.5655C74.0497 77.5655 76.0244 78.0595 77.2585 77.5655C80.4673 76.0833 83.923 76.5774 87.1318 76.5774C89.1064 76.5774 91.0811 77.0714 93.0557 76.0833C97.2519 76.0833 101.448 76.0833 105.644 75.5893C106.631 75.5893 107.619 75.5893 108.606 75.5893C109.1 75.5893 109.84 75.5893 109.84 75.0952C109.1 73.119 110.828 73.6131 112.555 73.6131C114.53 73.6131 116.258 73.6131 118.233 73.6131C118.726 73.119 119.467 73.119 120.207 73.119C120.701 73.119 121.441 73.119 121.441 72.625C121.441 72.131 120.701 72.131 120.207 71.6369C119.96 71.6369 119.96 71.6369 119.96 71.6369C119.714 71.6369 119.96 72.131 119.96 71.6369C120.701 71.6369 121.688 72.131 122.182 71.1429C122.922 71.6369 123.663 71.6369 124.403 72.131C124.897 72.131 125.144 72.131 125.144 71.6369C125.144 72.131 125.144 72.131 125.391 72.625C125.638 73.119 126.131 73.119 126.378 73.119C127.365 73.119 128.353 71.1429 129.587 73.119C129.834 73.6131 131.068 73.119 131.808 72.625C133.042 72.131 134.03 72.625 135.017 73.119C135.758 73.119 136.251 73.119 136.745 72.625C137.732 72.625 138.966 72.625 139.954 72.625C141.188 72.625 142.175 72.625 143.409 73.119C144.89 73.119 144.89 72.131 144.89 71.6369C145.384 72.131 145.631 72.131 145.631 72.625L145.384 73.119C145.384 73.6131 145.631 74.1071 146.125 74.6012C150.074 75.5893 153.283 77.5655 156.491 79.5417C157.726 81.0238 159.947 81.5179 161.428 83C161.922 83 162.415 83 162.909 82.506C163.156 82.0119 163.156 81.5179 162.909 81.5179C164.637 82.0119 165.377 80.5298 166.612 80.5298C169.08 80.0357 169.574 78.5536 167.846 77.0714C172.782 78.5536 172.782 78.5536 174.263 76.0833C173.77 75.5893 173.029 74.6012 173.523 73.6131C174.757 73.6131 173.77 74.1071 174.017 74.1071C174.017 74.6012 174.263 75.0952 174.51 75.5893C175.251 76.0833 175.744 76.5774 176.732 76.5774C176.978 76.5774 176.978 76.5774 177.225 76.5774V77.0714C177.719 77.0714 177.966 77.0714 178.213 77.5655C178.953 78.0595 180.187 78.5536 179.2 79.5417C180.187 80.0357 180.681 80.5298 181.668 80.5298C182.162 80.5298 182.902 81.0238 183.396 80.5298C183.89 79.5417 185.371 79.5417 185.864 78.5536C188.086 80.0357 188.333 78.0595 189.32 77.5655C189.567 77.5655 189.567 77.5655 189.814 77.0714C191.295 77.0714 192.776 77.5655 194.01 76.5774C193.763 76.0833 193.516 75.5893 194.01 75.0952C194.257 74.6012 194.504 74.1071 194.504 73.6131C193.763 72.625 195.491 72.131 197.219 71.1429C197.219 71.6369 197.219 71.6369 197.712 71.6369C198.453 71.6369 199.193 71.6369 199.934 72.131C199.934 72.625 199.934 72.625 199.934 73.119C201.168 73.119 202.896 72.625 203.143 74.1071C203.143 74.1071 204.13 74.6012 204.377 74.6012C205.858 73.6131 207.092 74.1071 208.079 75.0952C208.326 75.0952 209.313 75.0952 209.313 75.0952C210.548 73.119 212.275 74.6012 213.51 75.0952C214.497 75.0952 215.731 75.0952 215.978 74.1071C216.718 74.6012 217.459 74.1071 218.199 73.6131C218.446 74.1071 218.94 74.6012 219.187 74.6012C219.68 75.0952 219.927 75.5893 220.421 76.0833C220.668 77.0714 220.668 77.5655 221.655 78.0595C223.63 79.0476 225.604 78.0595 227.579 78.0595C228.813 78.0595 229.554 77.5655 230.047 78.5536C230.788 78.5536 231.281 78.0595 232.022 78.0595C232.269 79.0476 232.022 79.5417 231.281 80.5298C232.269 81.5179 233.75 81.5179 235.231 81.0238C235.478 81.0238 235.724 80.5298 235.971 80.5298C236.218 80.0357 236.218 80.0357 236.465 79.5417C236.712 79.0476 237.205 78.5536 237.699 78.5536C241.155 78.5536 244.61 79.5417 248.066 79.5417C249.547 79.5417 251.275 79.5417 252.756 79.5417C254.484 79.5417 256.952 79.5417 254.484 77.5655C253.99 77.0714 254.73 76.5774 255.224 76.0833C255.471 75.5893 255.718 75.5893 255.718 75.0952C256.458 74.1071 257.939 74.6012 258.927 74.6012C260.654 74.6012 262.629 74.6012 264.11 74.1071C264.11 72.625 265.097 72.625 266.825 72.625C268.553 72.625 270.281 72.131 271.762 71.6369C271.762 71.6369 271.762 71.6369 271.762 71.1429H272.009C272.256 71.1429 272.255 71.1429 272.502 71.1429C272.749 71.6369 273.243 71.6369 273.737 71.6369C273.983 71.6369 274.23 72.131 274.23 72.131C274.971 72.625 275.958 72.625 276.698 72.625C276.452 72.625 276.205 72.625 276.205 73.119C276.698 73.6131 274.971 73.6131 275.217 74.1071C276.205 74.1071 277.439 74.1071 278.426 74.1071C279.907 75.0952 281.882 74.1071 283.61 74.6012C283.61 74.6012 283.857 75.0952 284.103 75.0952C284.597 75.0952 284.844 75.0952 285.091 75.0952C286.325 74.1071 288.3 75.5893 289.534 74.6012C289.04 74.6012 288.793 74.1071 288.3 74.1071C288.053 72.625 291.262 73.119 290.521 71.6369C291.508 71.6369 292.496 71.1429 293.236 72.131C293.977 72.131 294.717 72.131 295.458 72.131C295.705 72.131 295.704 72.131 295.951 72.131C296.692 72.131 297.679 72.131 298.42 72.131C298.42 72.131 298.42 72.131 298.667 72.131C300.394 72.625 302.369 72.625 304.097 72.131C307.552 72.131 311.255 72.625 314.711 71.6369C316.192 71.6369 317.673 71.6369 319.154 71.6369C321.128 71.6369 322.856 71.6369 324.831 71.6369C325.077 71.6369 325.324 71.6369 325.571 71.6369C326.558 71.6369 327.793 71.6369 328.78 71.6369C329.027 71.6369 329.274 72.131 329.274 72.131C330.508 72.625 331.742 72.625 332.976 72.625C334.457 72.625 335.938 72.131 337.419 72.131C338.406 71.1429 339.147 72.625 340.134 72.131C342.603 72.131 345.071 72.131 347.539 72.131C348.28 72.131 349.514 72.131 349.514 71.1429C347.786 71.1429 346.058 71.1429 344.33 71.1429C339.394 71.1429 334.457 70.6488 329.52 70.6488C329.52 69.6607 328.533 69.1667 327.546 69.1667C326.312 69.1667 325.077 69.1667 324.09 69.1667C327.052 68.1786 330.261 69.1667 332.976 68.1786C333.223 68.1786 333.223 68.1786 333.47 68.1786C333.47 68.1786 333.47 68.1786 333.717 68.1786C335.444 69.6607 337.666 69.1667 339.641 68.6726C342.109 68.1786 344.577 68.6726 346.799 67.6845C347.786 67.6845 348.526 67.6845 349.514 67.6845C350.748 67.6845 351.982 67.6845 353.216 67.1905C354.944 66.6964 355.438 67.1905 355.685 68.6726C355.191 68.6726 354.204 69.1667 354.45 69.1667C355.191 69.6607 354.45 71.6369 356.672 71.1429C356.672 70.6488 356.425 69.6607 356.425 69.1667C356.919 69.1667 357.906 68.6726 357.412 68.6726C355.438 67.1905 357.659 66.6964 358.153 66.2024C358.4 65.7083 359.14 65.7083 359.881 65.7083C360.374 65.7083 360.868 65.7083 361.362 65.7083C361.362 65.7083 361.362 66.2024 361.609 66.2024C364.077 66.2024 366.545 66.2024 368.767 65.2143C368.767 64.7202 368.767 64.7202 368.767 64.2262C369.754 63.7321 370.988 64.2262 371.729 63.2381C372.716 63.2381 373.703 63.2381 374.444 62.744C375.431 61.756 376.665 62.25 377.899 61.756C379.38 62.25 380.368 61.2619 381.602 61.2619C382.096 62.744 382.589 64.2262 384.811 62.25C386.785 61.2619 384.317 61.2619 384.07 60.7679C385.304 60.2738 386.292 59.7798 387.526 59.2857C388.76 59.2857 389.994 58.7917 390.735 58.2976C391.475 58.2976 391.969 58.2976 392.462 57.8036C393.697 57.3095 395.671 57.3095 395.671 56.8155C396.165 54.3452 397.152 55.3333 398.386 56.3214C398.633 56.3214 399.127 56.8155 399.867 56.8155C399.867 55.8274 398.88 55.8274 398.386 54.8393C399.867 54.3452 401.102 54.3452 402.336 53.8512C403.076 54.3452 401.348 54.8393 402.336 54.8393C402.829 54.8393 403.323 54.8393 403.817 54.3452C404.557 53.8512 405.051 52.8631 405.791 52.369C406.532 52.369 407.272 52.8631 407.766 52.369C408.013 52.369 408.753 52.8631 408.753 52.369C408.753 52.369 408.26 51.875 407.766 51.875C407.766 52.8631 408.013 52.369 408.26 52.369ZM170.561 69.1667C170.808 68.6726 170.808 68.6726 170.561 69.1667C170.808 68.6726 171.055 68.6726 170.561 69.1667ZM326.312 4.44643C326.065 4.44643 326.065 4.44643 326.312 4.44643V4.44643ZM370.248 54.3452C370.248 54.3452 370.248 53.8512 370.001 53.8512C370.248 53.8512 370.494 53.8512 370.248 54.3452ZM9.37982 31.125C9.37982 31.125 9.62665 30.631 9.87348 31.125C9.62665 31.125 9.62665 31.125 9.37982 31.125ZM16.5379 31.619C16.2911 31.619 16.2911 31.619 16.0443 31.125C16.0443 31.125 16.0443 31.125 16.2911 30.631C16.2911 31.125 16.5379 31.125 16.5379 31.619ZM395.918 38.0417C395.671 38.0417 395.424 38.0417 395.178 37.5476C395.178 37.5476 395.424 37.5476 395.671 37.5476C395.918 38.0417 395.918 38.0417 395.918 38.0417ZM365.311 42.4881C365.064 42.4881 364.817 42.4881 364.571 42.4881C364.324 42.4881 364.077 42.4881 363.83 42.4881C364.324 42.4881 364.817 42.9821 365.311 42.4881ZM373.456 44.9583C373.21 44.9583 373.21 44.9583 373.456 44.9583V44.9583ZM50.8475 55.8274C50.6007 55.8274 50.8475 55.8274 50.6007 55.8274C50.6007 55.8274 50.6007 55.8274 50.8475 55.8274ZM90.3406 18.2798C90.0938 18.2798 89.8469 18.2798 89.3533 18.2798C89.6001 18.2798 89.8469 18.2798 90.3406 18.2798ZM254.484 56.3214C254.237 56.3214 254.237 56.3214 254.484 56.3214V56.3214ZM41.9616 48.9107C42.2084 48.9107 42.7021 48.9107 42.9489 48.4167C42.9489 48.9107 42.9489 48.9107 42.7021 49.4048C42.4553 48.4167 42.2084 48.9107 41.9616 48.9107ZM39.2464 50.8869C38.5059 50.8869 38.0123 50.8869 37.5186 51.381C38.0123 51.381 38.7528 51.381 39.2464 50.8869ZM48.626 51.381C48.8729 51.381 48.626 51.875 49.1197 51.875C48.8729 51.875 48.8729 51.875 48.626 51.381ZM125.144 54.8393C125.144 54.3452 125.144 54.3452 125.144 54.8393V54.8393ZM76.0244 56.8155C75.7775 56.8155 75.7775 56.8155 76.0244 56.8155V56.8155ZM104.904 54.3452C104.41 54.3452 104.41 54.8393 104.163 54.8393C104.41 54.8393 104.657 54.3452 104.904 54.3452ZM94.7836 42.4881C94.7836 41.994 95.0304 41.994 94.7836 42.4881C95.0304 42.4881 95.0304 42.4881 94.7836 42.4881ZM212.769 33.1012C212.522 33.1012 212.275 33.5952 212.029 33.5952C211.782 33.5952 211.782 33.1012 211.782 33.1012C211.782 33.1012 212.275 33.1012 212.769 33.1012ZM349.02 37.5476C348.773 37.5476 348.773 38.0417 348.526 38.0417C348.526 37.5476 348.773 37.5476 349.02 37.5476ZM268.059 45.4524C268.306 45.4524 268.306 45.4524 268.059 45.4524V45.4524ZM253.249 51.381C253.003 51.381 253.003 51.381 252.756 50.8869C253.003 50.8869 253.003 50.8869 253.249 51.381C253.496 51.381 253.496 50.8869 253.249 51.381ZM199.687 31.125C199.44 31.125 199.44 30.631 198.947 30.1369C199.193 30.631 199.44 31.125 199.687 31.125ZM162.169 33.1012C162.169 33.5952 162.169 33.5952 162.169 33.1012V33.1012ZM166.118 43.9702C166.365 43.9702 166.365 43.4762 166.365 43.4762C166.612 43.4762 166.612 43.4762 166.118 43.9702ZM186.111 38.0417C186.111 38.0417 186.358 38.0417 186.358 37.5476C186.358 38.0417 186.358 38.0417 186.111 38.0417ZM193.763 34.5833C193.763 35.0774 193.763 35.0774 193.763 34.5833V34.5833ZM195.738 36.5595C195.985 36.0655 195.985 36.0655 195.738 36.5595V36.5595ZM214.991 54.3452C214.991 54.8393 214.991 54.8393 214.991 54.3452C214.991 54.8393 214.744 54.3452 214.744 54.8393C214.744 54.8393 214.991 54.8393 214.991 54.3452ZM212.522 43.9702C213.263 44.4643 214.25 44.4643 214.991 43.9702C214.003 44.4643 213.016 44.4643 212.522 43.9702ZM165.871 27.1726C166.118 27.1726 166.118 27.1726 166.365 27.1726C166.118 27.1726 165.871 27.1726 165.871 27.1726ZM155.257 35.0774C155.504 35.0774 155.504 34.5833 155.751 34.5833H155.998C155.751 35.0774 155.504 35.0774 155.257 35.0774ZM236.218 33.1012C235.971 33.1012 235.971 33.1012 235.724 33.1012C235.971 33.1012 236.218 33.1012 236.218 33.1012ZM304.59 40.0179C304.344 40.0179 304.344 40.0179 304.344 40.5119C304.344 40.0179 304.59 40.0179 304.59 40.0179ZM310.021 56.3214C310.021 55.8274 310.021 55.8274 310.021 56.3214C310.268 56.3214 310.268 56.3214 310.514 56.3214C310.021 56.3214 309.774 56.3214 310.021 56.3214ZM312.983 35.5714C313.23 35.0774 313.476 35.0774 313.723 35.5714C313.476 35.5714 313.23 35.5714 312.983 35.5714C312.983 36.0655 312.983 36.0655 312.983 35.5714ZM293.73 52.369H293.977C293.977 52.369 293.977 52.8631 293.73 52.369C293.977 52.8631 293.977 52.8631 293.73 52.369ZM270.528 40.0179C270.281 40.0179 270.281 40.0179 270.034 40.0179C270.281 40.0179 270.528 40.0179 270.528 40.0179ZM245.598 37.0536C245.845 37.0536 245.845 37.0536 245.845 37.0536H245.598ZM246.338 26.1845C246.585 26.1845 246.832 26.1845 246.832 26.6786C246.832 26.6786 246.585 26.6786 246.338 26.1845ZM236.959 47.4286C237.205 47.4286 237.699 47.4286 237.946 47.9226C237.699 47.9226 237.452 47.9226 236.959 47.4286ZM260.654 50.3929H260.408C260.654 50.3929 260.654 50.3929 260.654 50.3929ZM327.793 23.7143C327.546 24.2083 327.793 24.2083 327.793 23.7143V23.7143ZM342.356 35.0774C342.356 35.0774 342.109 35.0774 342.109 34.5833C342.109 35.0774 342.356 34.5833 342.356 35.0774ZM327.546 34.5833H327.793C327.546 34.5833 327.546 34.5833 327.546 34.5833ZM349.761 43.4762C349.514 43.4762 349.514 43.4762 349.761 43.4762C349.514 43.9702 349.02 43.9702 349.02 43.9702C348.773 43.9702 348.773 43.9702 348.526 43.9702C348.773 43.4762 349.267 43.4762 349.761 43.4762ZM340.134 24.2083C340.381 24.2083 340.628 24.7024 340.875 24.7024C340.628 24.7024 340.381 24.7024 340.134 24.2083ZM278.92 41.5H278.673C278.673 41.5 278.673 41.5 278.92 41.5ZM256.705 16.7976C256.952 16.7976 256.952 16.7976 256.705 16.7976C257.199 17.2917 257.446 17.2917 256.952 17.7857C256.705 17.7857 256.458 17.7857 256.211 17.7857H255.965C256.211 17.2917 256.458 17.2917 256.705 16.7976ZM246.832 15.3155C246.585 15.3155 246.585 15.3155 246.338 15.3155C246.338 15.8095 246.585 15.8095 246.832 15.3155ZM225.851 40.5119H225.604C225.604 40.5119 225.604 40.5119 225.851 40.5119ZM176.732 55.8274C177.225 55.8274 177.225 56.3214 176.732 55.8274V55.8274ZM178.459 58.2976C178.213 57.8036 178.706 57.3095 178.953 57.8036C178.706 58.2976 178.706 58.7917 178.953 59.2857C178.706 58.7917 178.459 58.2976 178.459 58.2976ZM265.838 47.4286C266.085 47.4286 266.085 47.4286 266.578 47.4286C266.332 47.4286 266.085 47.4286 265.838 47.4286ZM325.571 46.4405C325.818 46.4405 326.312 46.4405 326.558 46.4405C326.312 46.9345 325.818 46.9345 325.818 47.4286C325.571 46.9345 325.571 46.9345 325.571 46.4405ZM335.444 46.4405C335.444 46.4405 335.691 46.4405 335.938 46.4405C335.691 46.4405 335.691 46.4405 335.444 46.4405ZM339.147 45.9464C338.9 45.9464 338.9 46.4405 339.147 45.9464V45.9464ZM324.09 38.5357C323.843 38.5357 323.596 38.5357 323.596 38.5357C323.843 38.5357 323.843 38.5357 324.09 38.5357ZM313.476 28.6548C313.723 28.6548 313.97 28.6548 314.217 28.6548C314.217 28.6548 314.217 29.1488 313.97 29.1488C313.723 29.1488 313.723 28.6548 313.476 28.6548ZM248.066 15.3155C247.819 15.3155 247.819 15.3155 247.572 15.3155C247.819 15.3155 247.819 14.8214 248.066 15.3155C248.066 14.8214 248.066 14.8214 248.066 15.3155ZM209.313 28.6548C209.067 28.6548 209.067 28.6548 209.313 28.6548V28.6548ZM197.959 26.1845C197.712 26.1845 197.712 26.1845 197.466 26.6786C197.466 26.6786 197.219 26.6786 196.972 26.6786C197.466 26.1845 197.712 26.6786 197.959 26.1845ZM56.5247 35.5714C56.5247 35.5714 56.2778 36.0655 55.5373 36.5595C56.031 36.0655 56.2778 35.5714 56.5247 35.0774C56.5247 35.0774 56.5247 35.0774 56.5247 35.5714ZM66.8916 30.1369C66.8916 30.1369 66.8916 30.631 66.6448 30.631C66.8916 30.1369 66.8916 30.1369 66.8916 30.1369ZM113.543 60.2738C113.79 60.2738 114.036 60.2738 114.283 60.2738C113.79 60.2738 113.296 60.2738 113.049 60.2738C113.296 60.2738 113.543 60.2738 113.543 60.2738ZM193.023 56.3214C192.529 56.3214 192.035 56.3214 191.542 56.3214C191.788 56.3214 192.529 56.3214 193.023 56.3214ZM225.111 51.381C225.851 51.381 226.592 51.381 226.838 51.875C226.345 51.875 225.851 51.381 225.111 51.381ZM274.477 63.7321H274.23C274.23 63.2381 273.983 63.7321 273.983 63.2381C274.23 63.7321 274.23 63.7321 274.477 63.7321ZM360.374 39.5238C360.128 40.0179 360.128 39.5238 359.881 39.5238C360.128 39.5238 360.128 39.5238 360.374 39.5238ZM357.906 30.631C358.4 30.631 358.647 30.631 358.647 30.631C358.4 30.631 358.153 30.631 357.906 30.631ZM344.824 18.2798L344.577 17.7857C344.824 17.7857 344.824 18.2798 344.824 18.2798ZM338.9 12.8452C338.653 12.8452 338.653 12.8452 338.653 12.8452H338.9ZM330.508 13.8333C330.261 13.8333 330.261 13.8333 330.508 13.8333V13.8333ZM326.805 10.869C326.558 10.375 326.558 10.869 326.312 10.869C326.558 10.869 327.052 10.869 327.299 10.869C327.052 10.869 327.052 11.3631 326.805 10.869ZM324.831 11.8571C324.584 11.3631 324.337 11.3631 323.843 11.3631C324.337 11.3631 324.584 11.3631 325.077 11.3631C325.077 11.3631 324.831 11.3631 324.831 11.8571ZM175.498 21.244C174.757 21.7381 174.51 21.7381 174.263 20.75C174.51 20.75 175.004 21.244 175.498 21.244ZM72.3219 49.8988C72.5687 49.8988 72.8155 49.8988 73.0624 50.3929C72.8155 50.3929 72.5687 49.8988 72.3219 49.8988ZM93.7962 63.7321C93.5494 63.7321 93.3026 63.2381 92.8089 63.7321C93.3026 63.7321 93.5494 63.7321 93.7962 63.7321ZM117.492 60.2738H117.245C117.492 60.2738 117.492 60.2738 117.492 60.2738ZM285.338 62.744C285.584 62.744 285.584 62.744 285.338 62.744V62.744ZM302.369 65.7083C301.875 65.7083 301.382 65.7083 301.135 65.7083L300.888 65.2143C301.382 65.7083 301.875 65.7083 302.369 65.7083ZM329.52 53.3571C329.767 53.3571 329.767 53.3571 329.52 53.3571C329.52 53.8512 329.767 53.8512 329.52 53.3571ZM371.482 25.6905C371.235 25.6905 370.988 25.6905 370.741 25.1964C371.235 25.1964 371.235 25.6905 371.482 25.6905ZM381.355 20.256C381.602 20.256 381.849 20.256 382.096 20.256C381.602 20.256 381.602 20.75 381.355 20.256C381.108 20.75 381.108 20.75 381.355 20.256ZM379.627 48.4167C380.368 48.9107 381.108 48.9107 382.096 48.4167C381.355 48.9107 380.368 48.9107 379.627 48.4167ZM382.589 37.0536C382.589 36.5595 382.589 36.5595 382.589 37.0536V37.0536ZM368.767 8.89286V8.39881C369.013 8.39881 369.507 8.39881 369.754 8.39881C369.507 8.39881 369.013 8.39881 368.767 8.89286ZM311.255 13.3393C311.502 13.3393 311.502 12.8452 311.502 12.8452C311.502 12.8452 311.502 12.8452 311.255 13.3393ZM287.559 17.7857C287.559 17.2917 287.559 17.2917 287.559 17.7857V17.7857ZM257.939 14.3274V14.8214C257.692 14.3274 257.446 14.3274 257.199 14.3274C257.446 14.3274 257.692 14.3274 257.939 14.3274ZM222.396 30.631C222.396 31.125 222.149 31.125 221.408 31.125C220.915 31.125 220.915 30.631 220.915 30.1369C221.408 30.631 221.655 31.125 222.396 30.631ZM217.953 14.3274C217.953 14.8214 217.953 14.8214 217.953 14.3274C217.706 14.3274 217.706 14.3274 217.706 14.3274C217.706 14.8214 217.953 14.3274 217.953 14.3274ZM202.896 18.7738C203.143 18.7738 203.389 18.7738 203.389 18.7738C203.143 18.7738 203.143 18.7738 202.896 18.7738ZM196.231 22.7262C196.231 22.2321 195.738 22.2321 195.491 21.7381C195.985 22.2321 196.231 22.2321 196.231 22.7262C196.231 22.2321 196.231 22.2321 196.231 22.7262ZM176.732 15.3155L176.485 15.8095C176.485 15.8095 176.485 15.8095 176.732 15.3155ZM173.77 16.3036C173.523 16.3036 173.276 15.8095 172.782 15.8095C173.276 15.8095 173.523 15.8095 173.77 16.3036ZM99.967 30.1369C99.967 30.1369 100.214 30.1369 100.214 29.6429L99.967 30.1369ZM83.923 20.256H83.6761C83.923 20.256 83.923 20.256 83.923 20.256ZM37.2718 37.0536H37.025C37.025 36.5595 37.025 36.5595 37.2718 37.0536ZM60.7208 53.8512C60.9676 53.3571 61.2145 52.8631 61.7081 53.3571C61.7081 53.3571 61.7081 53.3571 61.955 53.3571C61.2145 53.3571 60.9676 53.8512 60.7208 53.8512ZM82.9356 61.756C82.9356 61.2619 83.1825 61.2619 82.9356 61.756C83.4293 62.744 84.1698 62.744 85.1571 62.25C84.1698 62.25 83.4293 62.25 82.9356 61.756ZM117.492 63.2381C117.492 63.2381 117.739 63.2381 117.986 63.2381C117.739 63.2381 117.492 63.2381 117.245 63.7321C117.245 63.2381 117.245 63.2381 117.492 63.2381ZM208.326 65.7083C208.573 65.7083 208.573 65.7083 208.326 65.7083V65.7083ZM216.472 68.6726C216.225 68.6726 216.225 68.6726 216.472 68.6726V68.6726ZM225.604 63.2381C225.357 63.2381 225.357 63.2381 225.111 63.2381C225.111 63.7321 225.357 63.7321 225.604 63.2381ZM256.952 65.7083H257.199C257.199 65.2143 256.952 65.2143 256.952 65.7083ZM264.11 56.3214C263.863 56.8155 263.37 56.8155 262.382 56.8155H262.135C262.876 56.8155 263.616 56.8155 264.11 56.3214ZM265.097 59.2857C265.097 59.2857 265.591 59.2857 265.838 59.2857C265.591 59.2857 265.344 59.2857 265.097 59.2857ZM349.02 55.3333C349.267 55.3333 349.267 55.3333 349.02 55.3333V55.3333ZM389.747 42.4881C389.994 42.4881 389.994 42.4881 389.747 42.4881V42.4881ZM378.146 18.2798H377.899C378.146 17.7857 378.146 17.7857 378.146 18.2798ZM374.444 12.8452C374.691 12.8452 374.691 12.8452 374.444 12.8452C374.691 12.8452 374.691 13.3393 374.937 13.3393C374.937 12.8452 374.691 12.8452 374.444 12.8452ZM373.703 12.3512C373.703 12.3512 373.95 12.3512 374.197 12.3512H374.444C374.197 12.3512 373.95 12.3512 373.703 12.3512ZM370.248 4.44643C370.248 3.95238 370.248 3.95238 370.248 4.44643V4.44643ZM319.154 8.39881C319.4 8.39881 319.4 8.39881 319.647 8.39881C319.4 8.39881 319.4 8.39881 319.154 8.89286C319.154 8.39881 319.4 8.39881 319.154 8.39881ZM251.028 9.3869C250.534 9.3869 250.287 9.3869 250.287 9.3869C250.287 9.3869 250.781 9.3869 251.028 9.3869ZM203.143 10.869C202.896 10.869 202.896 10.869 202.896 10.869H203.143ZM183.149 18.7738C183.149 18.7738 183.396 18.7738 183.643 18.7738C183.643 18.2798 183.396 18.2798 183.149 18.7738ZM179.694 14.3274H179.94V14.8214C179.94 14.3274 179.694 14.8214 179.694 14.3274ZM150.568 19.7619C150.568 19.7619 150.814 20.256 150.321 20.256C150.074 20.256 149.827 20.256 149.827 20.256C150.074 20.256 150.321 20.256 150.568 19.7619ZM79.2332 18.2798C79.48 18.2798 79.48 18.2798 79.7268 18.2798C79.48 18.7738 79.2332 18.7738 79.2332 18.2798ZM45.9109 27.6667C46.1577 27.6667 46.6514 28.1607 46.8982 28.1607C46.6514 28.1607 46.4046 27.6667 45.9109 27.6667ZM69.8536 48.4167C68.8662 48.4167 67.8789 47.9226 67.1384 47.4286C67.8789 47.9226 68.6194 48.4167 69.8536 48.4167ZM72.5687 66.2024C72.3219 66.2024 72.3219 66.2024 72.0751 66.2024C72.3219 66.2024 72.5687 66.2024 72.5687 66.2024ZM177.719 66.6964C177.472 66.6964 177.472 66.6964 177.719 66.6964V66.6964ZM244.364 67.6845C244.117 67.6845 244.117 67.6845 243.87 67.6845C244.117 67.6845 244.364 67.6845 244.364 67.6845ZM258.927 66.2024H259.173C259.173 66.2024 259.173 65.7083 258.927 66.2024ZM279.66 65.7083C279.66 65.7083 279.414 65.7083 279.414 66.2024C279.414 66.2024 279.414 65.7083 279.66 65.7083ZM395.424 37.5476C395.671 37.5476 395.671 37.5476 395.424 37.5476V37.5476ZM401.102 27.1726C401.348 27.1726 401.595 27.1726 401.842 26.6786C402.089 26.6786 401.842 27.1726 402.089 27.6667C401.595 27.1726 401.595 26.6786 401.102 27.1726ZM310.021 3.95238H309.774C309.774 3.95238 309.774 3.95238 310.021 3.95238ZM284.35 11.8571C284.597 11.8571 284.597 11.8571 284.844 11.8571C284.597 11.8571 284.35 11.8571 284.35 11.8571ZM227.579 7.90476C227.826 7.90476 227.826 7.90476 228.073 7.90476C227.826 8.39881 227.826 7.90476 227.579 7.90476ZM32.3352 27.1726C33.5693 26.6786 34.5566 26.1845 35.544 25.6905C34.3098 26.1845 33.3225 26.6786 32.3352 27.1726ZM9.37982 37.5476C9.13298 38.0417 8.88615 38.5357 8.39249 38.5357H8.14566C8.39249 38.5357 8.88615 38.0417 9.37982 37.5476ZM15.5506 58.7917C15.7974 58.7917 15.7974 58.7917 15.5506 58.7917C15.7974 58.7917 15.7974 59.2857 15.5506 58.7917ZM33.0757 63.7321C32.8288 63.7321 32.8288 63.7321 32.8288 63.7321C32.8288 63.2381 32.8288 63.2381 33.0757 63.7321ZM68.6194 50.3929C68.3726 50.3929 67.8789 50.3929 67.6321 50.3929C68.1257 50.3929 68.3726 50.3929 68.6194 50.3929ZM84.1698 67.1905H84.4166C84.4166 67.1905 84.4166 67.1905 84.1698 67.1905ZM190.554 65.7083C190.307 65.7083 190.307 65.7083 190.061 65.7083C190.307 65.2143 190.554 65.7083 190.554 65.7083ZM259.173 69.6607C259.173 69.1667 259.173 69.1667 259.173 69.6607C259.42 69.1667 259.42 69.1667 259.173 69.6607C259.42 69.6607 259.42 69.6607 259.173 69.6607ZM224.37 7.90476C224.37 7.90476 224.864 8.39881 224.617 8.39881C224.123 7.90476 223.383 8.39881 222.889 8.39881C223.383 7.90476 223.877 7.90476 224.37 7.90476ZM164.884 9.88095C165.131 9.88095 165.377 9.88095 165.377 9.88095C165.131 9.88095 164.884 9.88095 164.884 9.88095ZM5.67734 40.0179C5.43051 40.0179 5.18368 39.5238 4.44318 40.0179C4.19635 40.0179 3.94952 39.5238 3.94952 39.5238C4.19635 39.5238 4.69002 39.5238 5.67734 40.0179ZM13.8228 56.3214C14.0696 56.3214 14.3164 56.3214 14.3164 56.8155C14.3164 56.8155 14.0696 56.8155 13.8228 56.3214C13.8228 56.8155 13.8228 56.8155 13.8228 56.3214ZM62.9423 72.625C62.9423 72.131 62.9423 72.131 62.9423 72.625C63.1891 72.131 63.1891 72.131 62.9423 72.625ZM103.176 72.131C102.682 72.131 102.189 72.131 101.695 72.131C102.189 71.6369 102.682 72.131 103.176 72.131ZM190.307 73.119C189.814 73.6131 189.32 74.1071 188.58 74.1071C189.073 73.6131 189.814 73.6131 190.307 73.119ZM227.332 71.1429H227.085C227.332 71.1429 227.332 71.1429 227.332 71.1429ZM321.869 67.6845C321.622 67.6845 321.622 67.6845 321.869 67.6845V67.6845ZM377.653 59.2857C378.146 60.2738 378.887 60.2738 379.38 60.2738C378.887 60.2738 378.146 60.7679 377.406 60.7679C377.653 60.7679 377.653 60.2738 377.653 59.2857ZM353.463 2.47024C353.216 2.47024 353.216 2.47024 353.463 2.47024V2.47024ZM235.478 4.94048C235.478 4.44643 235.478 4.44643 235.478 4.94048C235.478 4.44643 235.724 4.94048 235.478 4.94048ZM169.574 6.91667C169.327 6.91667 169.327 6.91667 169.574 6.91667V6.91667ZM149.827 7.90476C149.58 7.90476 149.58 7.90476 149.333 7.90476C149.333 7.90476 149.333 7.41071 149.58 7.41071C149.333 7.90476 149.58 7.90476 149.827 7.90476ZM6.41784 31.619C6.171 31.619 5.92417 31.619 5.92417 31.619C5.92417 31.619 6.171 31.125 6.41784 31.619ZM20.7341 72.131C20.9809 72.131 21.2277 72.131 20.7341 72.131V72.131ZM239.921 75.5893C240.167 75.5893 240.167 75.5893 240.414 75.5893C240.167 75.5893 240.167 76.0833 239.921 75.5893ZM323.843 70.6488C324.09 70.6488 324.09 70.6488 323.843 70.6488V70.6488ZM322.856 69.1667C322.856 69.1667 322.856 68.6726 322.609 68.6726C322.609 68.6726 322.609 68.6726 322.856 68.6726C322.856 68.6726 322.609 69.1667 322.856 69.1667ZM382.342 61.756L382.589 61.2619C382.589 61.756 382.342 61.756 382.342 61.756Z" fill="#000025"/>
</g>
<defs>
<clipPath id="clip0_11_99">
<rect width="409" height="83" fill="white"/>
</clipPath>
</defs>
</svg>
